<?xml version="1.0" encoding="utf-8"?>
<!-- Generator: Adobe Illustrator 16.0.3, SVG Export Plug-In . SVG Version: 6.00 Build 0)  -->
<!DOCTYPE svg PUBLIC "-//W3C//DTD SVG 1.1//EN" "http://www.w3.org/Graphics/SVG/1.1/DTD/svg11.dtd">
<svg version="1.1" id="Layer_1" xmlns="http://www.w3.org/2000/svg" xmlns:xlink="http://www.w3.org/1999/xlink" x="0px" y="0px"
	 width="288px" height="288px" viewBox="0 0 288 288" enable-background="new 0 0 288 288" xml:space="preserve">
<g>
	<linearGradient id="SVGID_1_" gradientUnits="userSpaceOnUse" x1="114.5815" y1="152.6816" x2="187.0332" y2="152.6816">
		<stop  offset="0" style="stop-color:#E9C7DF"/>
		<stop  offset="1" style="stop-color:#B13D96"/>
	</linearGradient>
	<path fill-rule="evenodd" clip-rule="evenodd" fill="url(#SVGID_1_)" stroke="#000000" stroke-miterlimit="10" d="M130.649,94.309
		c-1.354,0-2.618,0-4.02,0c0,0.462,0,0.875,0,1.288c-0.001,15.695,0.004,31.39-0.009,47.084c-0.002,2.668-1.323,4.609-3.648,5.511
		c-2.487,0.964-5.224,0.37-6.941-1.511c-1.154-1.265-1.458-2.792-1.45-4.452c0.024-5.046,0.007-10.092,0.009-15.138
		c0.005-11.664-0.041-23.329,0.036-34.993c0.055-8.394,5.286-15.017,13.43-17.058c2.011-0.504,4.126-0.809,6.196-0.822
		c11.402-0.074,22.808-0.197,34.206,0.03c8.562,0.17,15.925,5.081,17.986,13.877c0.53,2.261,0.557,4.674,0.563,7.018
		c0.043,15.53,0.022,31.061,0.001,46.591c-0.001,0.907-0.082,1.843-0.31,2.717c-0.754,2.892-3.186,4.752-5.925,4.636
		c-2.701-0.114-5.03-2.207-5.564-5.101c-0.183-0.989-0.225-2.017-0.226-3.026c-0.012-15.104-0.005-30.209-0.003-45.314
		c0-0.419,0-0.838,0-1.321c-1.358,0-2.621,0-4.044,0c0,0.338,0,0.685,0,1.03c0,18.348,0.002,36.696,0,55.043
		c-0.003,19.659-0.011,39.317-0.015,58.976c0,4.456,0.008,8.912,0.016,13.368c0.004,2.544-0.488,4.937-2.586,6.61
		c-2.767,2.207-5.917,2.342-9.083,1.111c-2.938-1.143-4.276-3.577-4.368-6.629c-0.11-3.667-0.068-7.338-0.07-11.007
		c-0.007-11.959-0.005-23.918-0.002-35.877c0.002-9.632,0.01-19.265,0.015-28.897c0.001-0.422,0-0.843,0-1.351
		c-2.676,0-5.274,0-7.988,0c-0.021,0.334-0.061,0.678-0.061,1.021c0.002,19.166,0.008,38.332,0.012,57.498
		c0.002,5.8,0.01,11.599-0.004,17.398c-0.006,2.637-0.495,5.143-2.738,6.844c-2.813,2.132-5.975,2.233-9.112,0.935
		c-2.951-1.222-4.206-3.75-4.224-6.832c-0.051-8.911-0.028-17.823-0.03-26.735c-0.002-14.416-0.003-28.833-0.003-43.249
		c0-14.417,0.002-28.834,0.002-43.25c0-5.111-0.004-10.223-0.008-15.334C130.69,94.805,130.668,94.612,130.649,94.309z"/>
	<linearGradient id="SVGID_2_" gradientUnits="userSpaceOnUse" x1="133.6968" y1="52.4863" x2="166.9209" y2="52.4863">
		<stop  offset="0" style="stop-color:#E9C7DF"/>
		<stop  offset="1" style="stop-color:#B13D96"/>
	</linearGradient>
	<path fill-rule="evenodd" clip-rule="evenodd" fill="url(#SVGID_2_)" stroke="#000000" stroke-miterlimit="10" d="M150.276,69.099
		c-9.23-0.013-16.596-7.441-16.58-16.723c0.016-9.056,7.539-16.517,16.639-16.502c9.184,0.015,16.61,7.519,16.585,16.758
		C166.896,61.72,159.426,69.111,150.276,69.099z"/>
</g>
<g>
	<radialGradient id="SVGID_3_" cx="150.8076" cy="239.9346" r="65.1123" gradientUnits="userSpaceOnUse">
		<stop  offset="0" style="stop-color:#F3CFE3"/>
		<stop  offset="1" style="stop-color:#88277E"/>
	</radialGradient>
	
		<path fill-rule="evenodd" clip-rule="evenodd" fill="url(#SVGID_3_)" stroke="#000000" stroke-width="3" stroke-miterlimit="10" d="
		M73.387,217.863c4.157,7.338,16.027,13.277,36.448,17.598c14.197,3.005,29.638,4.4,45.921,4.235
		c18.443-0.186,33.952-2.282,46.23-6.265c12.284-3.983,18.169-8.939,18.405-14.8c9.275,3.904,15.408,8.092,18.086,12.65
		c4.817,8.199-0.399,15.456-16.142,21.549c-30.383,11.756-88.32,12.316-127.842,1.091C55.606,242.878,54.385,226.962,73.387,217.863
		z"/>
</g>
</svg>
